{
	"asset":{
		"generator":"Khronos glTF Blender I/O v4.4.56",
		"version":"2.0"
	},
	"extensionsUsed":[
		"KHR_texture_transform"
	],
	"extensionsRequired":[
		"KHR_texture_transform"
	],
	"scene":0,
	"scenes":[
		{
			"extras":{
				"BSBST_settings":{
					"preset_object":{},
					"edit_toggle":0
				},
				"modifier_list":{
					"pinned_object":{}
				}
			},
			"name":"Scene",
			"nodes":[
				0,
				1,
				2,
				3,
				4,
				5,
				6
			]
		}
	],
	"nodes":[
		{
			"mesh":0,
			"name":"Floors"
		},
		{
			"mesh":1,
			"name":"Walls"
		},
		{
			"mesh":2,
			"name":"Border.001",
			"translation":[
				0,
				0,
				-5
			]
		},
		{
			"mesh":3,
			"name":"ShootingRange.001",
			"rotation":[
				0,
				0.7071067094802856,
				0,
				0.7071068286895752
			],
			"translation":[
				0,
				0,
				-7.5
			]
		},
		{
			"mesh":4,
			"name":"ShootingRange.002",
			"rotation":[
				0,
				0.7071067094802856,
				0,
				0.7071068286895752
			],
			"translation":[
				-2.5,
				0,
				-7.5
			]
		},
		{
			"mesh":5,
			"name":"ShootingRange.003",
			"rotation":[
				0,
				0.7071067094802856,
				0,
				0.7071068286895752
			],
			"translation":[
				-5,
				0,
				-7.5
			]
		},
		{
			"mesh":6,
			"name":"Border.002",
			"translation":[
				-10,
				0,
				-30
			]
		}
	],
	"materials":[
		{
			"doubleSided":true,
			"extras":{
				"assettoCorsa":{}
			},
			"name":"Floor",
			"normalTexture":{
				"extensions":{
					"KHR_texture_transform":{
						"offset":[
							0.25,
							-15.25
						],
						"scale":[
							16,
							16
						]
					}
				},
				"index":0
			},
			"pbrMetallicRoughness":{
				"baseColorTexture":{
					"extensions":{
						"KHR_texture_transform":{
							"offset":[
								0.25,
								-15.25
							],
							"scale":[
								16,
								16
							]
						}
					},
					"index":1
				},
				"metallicFactor":0,
				"roughnessFactor":0.5
			}
		},
		{
			"doubleSided":true,
			"extras":{
				"assettoCorsa":{}
			},
			"name":"Wall",
			"normalTexture":{
				"index":2
			},
			"pbrMetallicRoughness":{
				"baseColorTexture":{
					"index":3
				},
				"metallicFactor":0,
				"roughnessFactor":0.5
			}
		},
		{
			"doubleSided":true,
			"extras":{
				"assettoCorsa":{}
			},
			"name":"Subwall",
			"normalTexture":{
				"index":4
			},
			"pbrMetallicRoughness":{
				"baseColorTexture":{
					"index":5
				},
				"metallicFactor":0,
				"roughnessFactor":0.5
			}
		}
	],
	"meshes":[
		{
			"name":"Plane.001",
			"primitives":[
				{
					"attributes":{
						"POSITION":0,
						"NORMAL":1,
						"TEXCOORD_0":2,
						"TANGENT":3
					},
					"indices":4,
					"material":0
				}
			]
		},
		{
			"name":"Plane.002",
			"primitives":[
				{
					"attributes":{
						"POSITION":5,
						"NORMAL":6,
						"TEXCOORD_0":7,
						"TANGENT":8
					},
					"indices":9,
					"material":1
				}
			]
		},
		{
			"name":"Cube",
			"primitives":[
				{
					"attributes":{
						"POSITION":10,
						"NORMAL":11,
						"TEXCOORD_0":12,
						"TANGENT":13
					},
					"indices":14,
					"material":2
				}
			]
		},
		{
			"name":"Cube.001",
			"primitives":[
				{
					"attributes":{
						"POSITION":15,
						"NORMAL":16,
						"TEXCOORD_0":17,
						"TANGENT":18
					},
					"indices":19,
					"material":2
				}
			]
		},
		{
			"name":"Cube.002",
			"primitives":[
				{
					"attributes":{
						"POSITION":20,
						"NORMAL":21,
						"TEXCOORD_0":22,
						"TANGENT":23
					},
					"indices":19,
					"material":2
				}
			]
		},
		{
			"name":"Cube.003",
			"primitives":[
				{
					"attributes":{
						"POSITION":24,
						"NORMAL":25,
						"TEXCOORD_0":26,
						"TANGENT":27
					},
					"indices":19,
					"material":2
				}
			]
		},
		{
			"name":"Cube.004",
			"primitives":[
				{
					"attributes":{
						"POSITION":28,
						"NORMAL":29,
						"TEXCOORD_0":30,
						"TANGENT":31
					},
					"indices":14,
					"material":2
				}
			]
		}
	],
	"textures":[
		{
			"sampler":0,
			"source":0
		},
		{
			"sampler":0,
			"source":1
		},
		{
			"sampler":0,
			"source":2
		},
		{
			"sampler":0,
			"source":3
		},
		{
			"sampler":0,
			"source":4
		},
		{
			"sampler":0,
			"source":5
		}
	],
	"images":[
		{
			"mimeType":"image/png",
			"name":"floor_normal.png",
			"uri":"../../assets/environments/test_range/floor_normal.png"
		},
		{
			"mimeType":"image/png",
			"name":"floor_albedo.png",
			"uri":"../../assets/environments/test_range/floor_albedo.png"
		},
		{
			"mimeType":"image/png",
			"name":"wall_normal.png",
			"uri":"../../assets/environments/test_range/wall_normal.png"
		},
		{
			"mimeType":"image/png",
			"name":"wall_albedo.png",
			"uri":"../../assets/environments/test_range/wall_albedo.png"
		},
		{
			"mimeType":"image/png",
			"name":"subwall_normal.png",
			"uri":"../../assets/environments/test_range/subwall_normal.png"
		},
		{
			"mimeType":"image/png",
			"name":"subwall_albedo.png",
			"uri":"../../assets/environments/test_range/subwall_albedo.png"
		}
	],
	"accessors":[
		{
			"bufferView":0,
			"componentType":5126,
			"count":55,
			"max":[
				29,
				0,
				23
			],
			"min":[
				-10,
				-2,
				-45
			],
			"type":"VEC3"
		},
		{
			"bufferView":1,
			"componentType":5126,
			"count":55,
			"type":"VEC3"
		},
		{
			"bufferView":2,
			"componentType":5126,
			"count":55,
			"type":"VEC2"
		},
		{
			"bufferView":3,
			"componentType":5126,
			"count":55,
			"type":"VEC4"
		},
		{
			"bufferView":4,
			"componentType":5123,
			"count":144,
			"type":"SCALAR"
		},
		{
			"bufferView":5,
			"componentType":5126,
			"count":572,
			"max":[
				29.5,
				4,
				23.5
			],
			"min":[
				-10.5,
				-2,
				-45.5
			],
			"type":"VEC3"
		},
		{
			"bufferView":6,
			"componentType":5126,
			"count":572,
			"type":"VEC3"
		},
		{
			"bufferView":7,
			"componentType":5126,
			"count":572,
			"type":"VEC2"
		},
		{
			"bufferView":8,
			"componentType":5126,
			"count":572,
			"type":"VEC4"
		},
		{
			"bufferView":9,
			"componentType":5123,
			"count":1056,
			"type":"SCALAR"
		},
		{
			"bufferView":10,
			"componentType":5126,
			"count":20,
			"max":[
				0.5,
				2,
				0
			],
			"min":[
				0,
				0,
				-5
			],
			"type":"VEC3"
		},
		{
			"bufferView":11,
			"componentType":5126,
			"count":20,
			"type":"VEC3"
		},
		{
			"bufferView":12,
			"componentType":5126,
			"count":20,
			"type":"VEC2"
		},
		{
			"bufferView":13,
			"componentType":5126,
			"count":20,
			"type":"VEC4"
		},
		{
			"bufferView":14,
			"componentType":5123,
			"count":30,
			"type":"SCALAR"
		},
		{
			"bufferView":15,
			"componentType":5126,
			"count":146,
			"max":[
				1.5,
				3,
				4.7177871920212056e-07
			],
			"min":[
				-1,
				0,
				-2.500000476837158
			],
			"type":"VEC3"
		},
		{
			"bufferView":16,
			"componentType":5126,
			"count":146,
			"type":"VEC3"
		},
		{
			"bufferView":17,
			"componentType":5126,
			"count":146,
			"type":"VEC2"
		},
		{
			"bufferView":18,
			"componentType":5126,
			"count":146,
			"type":"VEC4"
		},
		{
			"bufferView":19,
			"componentType":5123,
			"count":366,
			"type":"SCALAR"
		},
		{
			"bufferView":20,
			"componentType":5126,
			"count":146,
			"max":[
				1.5,
				3,
				4.7177871920212056e-07
			],
			"min":[
				-1,
				0,
				-2.500000476837158
			],
			"type":"VEC3"
		},
		{
			"bufferView":21,
			"componentType":5126,
			"count":146,
			"type":"VEC3"
		},
		{
			"bufferView":22,
			"componentType":5126,
			"count":146,
			"type":"VEC2"
		},
		{
			"bufferView":23,
			"componentType":5126,
			"count":146,
			"type":"VEC4"
		},
		{
			"bufferView":24,
			"componentType":5126,
			"count":146,
			"max":[
				1.5,
				3,
				4.7177871920212056e-07
			],
			"min":[
				-1,
				0,
				-2.500000476837158
			],
			"type":"VEC3"
		},
		{
			"bufferView":25,
			"componentType":5126,
			"count":146,
			"type":"VEC3"
		},
		{
			"bufferView":26,
			"componentType":5126,
			"count":146,
			"type":"VEC2"
		},
		{
			"bufferView":27,
			"componentType":5126,
			"count":146,
			"type":"VEC4"
		},
		{
			"bufferView":28,
			"componentType":5126,
			"count":20,
			"max":[
				10,
				4,
				0
			],
			"min":[
				0,
				0,
				-1
			],
			"type":"VEC3"
		},
		{
			"bufferView":29,
			"componentType":5126,
			"count":20,
			"type":"VEC3"
		},
		{
			"bufferView":30,
			"componentType":5126,
			"count":20,
			"type":"VEC2"
		},
		{
			"bufferView":31,
			"componentType":5126,
			"count":20,
			"type":"VEC4"
		}
	],
	"bufferViews":[
		{
			"buffer":0,
			"byteLength":660,
			"byteOffset":0,
			"target":34962
		},
		{
			"buffer":0,
			"byteLength":660,
			"byteOffset":660,
			"target":34962
		},
		{
			"buffer":0,
			"byteLength":440,
			"byteOffset":1320,
			"target":34962
		},
		{
			"buffer":0,
			"byteLength":880,
			"byteOffset":1760,
			"target":34962
		},
		{
			"buffer":0,
			"byteLength":288,
			"byteOffset":2640,
			"target":34963
		},
		{
			"buffer":0,
			"byteLength":6864,
			"byteOffset":2928,
			"target":34962
		},
		{
			"buffer":0,
			"byteLength":6864,
			"byteOffset":9792,
			"target":34962
		},
		{
			"buffer":0,
			"byteLength":4576,
			"byteOffset":16656,
			"target":34962
		},
		{
			"buffer":0,
			"byteLength":9152,
			"byteOffset":21232,
			"target":34962
		},
		{
			"buffer":0,
			"byteLength":2112,
			"byteOffset":30384,
			"target":34963
		},
		{
			"buffer":0,
			"byteLength":240,
			"byteOffset":32496,
			"target":34962
		},
		{
			"buffer":0,
			"byteLength":240,
			"byteOffset":32736,
			"target":34962
		},
		{
			"buffer":0,
			"byteLength":160,
			"byteOffset":32976,
			"target":34962
		},
		{
			"buffer":0,
			"byteLength":320,
			"byteOffset":33136,
			"target":34962
		},
		{
			"buffer":0,
			"byteLength":60,
			"byteOffset":33456,
			"target":34963
		},
		{
			"buffer":0,
			"byteLength":1752,
			"byteOffset":33516,
			"target":34962
		},
		{
			"buffer":0,
			"byteLength":1752,
			"byteOffset":35268,
			"target":34962
		},
		{
			"buffer":0,
			"byteLength":1168,
			"byteOffset":37020,
			"target":34962
		},
		{
			"buffer":0,
			"byteLength":2336,
			"byteOffset":38188,
			"target":34962
		},
		{
			"buffer":0,
			"byteLength":732,
			"byteOffset":40524,
			"target":34963
		},
		{
			"buffer":0,
			"byteLength":1752,
			"byteOffset":41256,
			"target":34962
		},
		{
			"buffer":0,
			"byteLength":1752,
			"byteOffset":43008,
			"target":34962
		},
		{
			"buffer":0,
			"byteLength":1168,
			"byteOffset":44760,
			"target":34962
		},
		{
			"buffer":0,
			"byteLength":2336,
			"byteOffset":45928,
			"target":34962
		},
		{
			"buffer":0,
			"byteLength":1752,
			"byteOffset":48264,
			"target":34962
		},
		{
			"buffer":0,
			"byteLength":1752,
			"byteOffset":50016,
			"target":34962
		},
		{
			"buffer":0,
			"byteLength":1168,
			"byteOffset":51768,
			"target":34962
		},
		{
			"buffer":0,
			"byteLength":2336,
			"byteOffset":52936,
			"target":34962
		},
		{
			"buffer":0,
			"byteLength":240,
			"byteOffset":55272,
			"target":34962
		},
		{
			"buffer":0,
			"byteLength":240,
			"byteOffset":55512,
			"target":34962
		},
		{
			"buffer":0,
			"byteLength":160,
			"byteOffset":55752,
			"target":34962
		},
		{
			"buffer":0,
			"byteLength":320,
			"byteOffset":55912,
			"target":34962
		}
	],
	"samplers":[
		{
			"magFilter":9729,
			"minFilter":9987
		}
	],
	"buffers":[
		{
			"byteLength":56232,
			"uri":"test_range-fbb1df0e77dc4e2eff7af2426489d796.bin"
		}
	]
}
